<svg width="1680" height="929" xmlns="http://www.w3.org/2000/svg"><g><path d="M-108.81449399515986,-105.02888387069106L-118.9965854678303,96.69093805365264L116.96044374257326,-36.81415429338813Z" fill="#ffffe4" stroke="#ffffe4"/><path d="M-108.81449399515986,-105.02888387069106L116.96044374257326,-36.81415429338813L204.54267628490925,-83.49234634079039Z" fill="#fafde1" stroke="#fafde1"/><path d="M-108.81449399515986,-105.02888387069106L204.54267628490925,-83.49234634079039L503.06556126102805,-98.78538242541254Z" fill="#f1f9da" stroke="#f1f9da"/><path d="M-108.81449399515986,-105.02888387069106L503.06556126102805,-98.78538242541254L788.4451959002763,-101.52897614054382Z" fill="#e3f4ce" stroke="#e3f4ce"/><path d="M-108.81449399515986,-105.02888387069106L788.4451959002763,-101.52897614054382L1367.7867583651096,-111.30133498460054Z" fill="#cae9c2" stroke="#cae9c2"/><path d="M-108.81449399515986,-105.02888387069106L1367.7867583651096,-111.30133498460054L1894.4028429687023,-118.16722858697176Z" fill="#a6d2af" stroke="#a6d2af"/><path d="M116.96044374257326,-36.81415429338813L-118.9965854678303,96.69093805365264L73.14381829462945,130.49104649573565Z" fill="#faffd6" stroke="#faffd6"/><path d="M116.96044374257326,-36.81415429338813L73.14381829462945,130.49104649573565L212.03334351070225,31.538590528070927Z" fill="#f4fbd2" stroke="#f4fbd2"/><path d="M116.96044374257326,-36.81415429338813L212.03334351070225,31.538590528070927L204.54267628490925,-83.49234634079039Z" fill="#f2fad9" stroke="#f2fad9"/><path d="M204.54267628490925,-83.49234634079039L212.03334351070225,31.538590528070927L363.8223770353943,-86.99230500496924Z" fill="#ecf8d6" stroke="#ecf8d6"/><path d="M204.54267628490925,-83.49234634079039L363.8223770353943,-86.99230500496924L503.06556126102805,-98.78538242541254Z" fill="#e5f5d0" stroke="#e5f5d0"/><path d="M363.8223770353943,-86.99230500496924L212.03334351070225,31.538590528070927L368.5600966773927,91.33385798893869Z" fill="#e8f6cb" stroke="#e8f6cb"/><path d="M363.8223770353943,-86.99230500496924L368.5600966773927,91.33385798893869L503.06556126102805,-98.78538242541254Z" fill="#e1f3cb" stroke="#e1f3cb"/><path d="M503.06556126102805,-98.78538242541254L368.5600966773927,91.33385798893869L552.9851133562624,128.07582498528063Z" fill="#daf1bf" stroke="#daf1bf"/><path d="M503.06556126102805,-98.78538242541254L552.9851133562624,128.07582498528063L694.9918387178332,-41.043653916567564Z" fill="#d2edc1" stroke="#d2edc1"/><path d="M503.06556126102805,-98.78538242541254L694.9918387178332,-41.043653916567564L788.4451959002763,-101.52897614054382Z" fill="#cbeac3" stroke="#cbeac3"/><path d="M694.9918387178332,-41.043653916567564L552.9851133562624,128.07582498528063L698.114567399025,57.746012192219496Z" fill="#caeab7" stroke="#caeab7"/><path d="M694.9918387178332,-41.043653916567564L698.114567399025,57.746012192219496L788.4451959002763,-101.52897614054382Z" fill="#c6e7be" stroke="#c6e7be"/><path d="M788.4451959002763,-101.52897614054382L698.114567399025,57.746012192219496L805.3148927818984,130.69022216834128Z" fill="#c1e6b5" stroke="#c1e6b5"/><path d="M788.4451959002763,-101.52897614054382L805.3148927818984,130.69022216834128L996.0826614964753,-53.78642505034804Z" fill="#b9e1b6" stroke="#b9e1b6"/><path d="M788.4451959002763,-101.52897614054382L996.0826614964753,-53.78642505034804L1168.5271903127432,-61.7395940143615Z" fill="#add7b3" stroke="#add7b3"/><path d="M788.4451959002763,-101.52897614054382L1168.5271903127432,-61.7395940143615L1299.487884035334,-89.2079400178045Z" fill="#a3cfac" stroke="#a3cfac"/><path d="M788.4451959002763,-101.52897614054382L1299.487884035334,-89.2079400178045L1367.7867583651096,-111.30133498460054Z" fill="#9ccaa8" stroke="#9ccaa8"/><path d="M996.0826614964753,-53.78642505034804L805.3148927818984,130.69022216834128L1004.0789072960615,73.9902130421251Z" fill="#b0dbaa" stroke="#b0dbaa"/><path d="M996.0826614964753,-53.78642505034804L1004.0789072960615,73.9902130421251L1160.5455890670419,34.88214796409011Z" fill="#a5d2a6" stroke="#a5d2a6"/><path d="M996.0826614964753,-53.78642505034804L1160.5455890670419,34.88214796409011L1168.5271903127432,-61.7395940143615Z" fill="#a1cea8" stroke="#a1cea8"/><path d="M1168.5271903127432,-61.7395940143615L1160.5455890670419,34.88214796409011L1299.487884035334,-89.2079400178045Z" fill="#96c6a3" stroke="#96c6a3"/><path d="M1299.487884035334,-89.2079400178045L1160.5455890670419,34.88214796409011L1297.9676034394652,115.0526925176382Z" fill="#91c299" stroke="#91c299"/><path d="M1299.487884035334,-89.2079400178045L1297.9676034394652,115.0526925176382L1447.2863353416324,50.710924342274666Z" fill="#87bb92" stroke="#87bb92"/><path d="M1299.487884035334,-89.2079400178045L1447.2863353416324,50.710924342274666L1367.7867583651096,-111.30133498460054Z" fill="#86b99a" stroke="#86b99a"/><path d="M1367.7867583651096,-111.30133498460054L1447.2863353416324,50.710924342274666L1580.3723653871566,-60.09024504572153Z" fill="#80b294" stroke="#80b294"/><path d="M1367.7867583651096,-111.30133498460054L1580.3723653871566,-60.09024504572153L1894.4028429687023,-118.16722858697176Z" fill="#80a68a" stroke="#80a68a"/><path d="M1580.3723653871566,-60.09024504572153L1447.2863353416324,50.710924342274666L1612.6774670742452,94.50681030750275Z" fill="#7eab85" stroke="#7eab85"/><path d="M1580.3723653871566,-60.09024504572153L1612.6774670742452,94.50681030750275L1669.493499090895,65.21704928018153Z" fill="#7ea580" stroke="#7ea580"/><path d="M1580.3723653871566,-60.09024504572153L1669.493499090895,65.21704928018153L1765.2836678177118,-39.143279660493135Z" fill="#80a182" stroke="#80a182"/><path d="M1580.3723653871566,-60.09024504572153L1765.2836678177118,-39.143279660493135L1894.4028429687023,-118.16722858697176Z" fill="#809c82" stroke="#809c82"/><path d="M1765.2836678177118,-39.143279660493135L1669.493499090895,65.21704928018153L1905.5524098314345,110.11849315837026Z" fill="#7d9974" stroke="#7d9974"/><path d="M1765.2836678177118,-39.143279660493135L1905.5524098314345,110.11849315837026L1894.4028429687023,-118.16722858697176Z" fill="#80937c" stroke="#80937c"/><path d="M1894.4028429687023,-118.16722858697176L1905.5524098314345,110.11849315837026L1921.3023992534727,196.52429033070803Z" fill="#7d8f71" stroke="#7d8f71"/><path d="M-118.9965854678303,96.69093805365264L-124.07550643198192,541.4103671908379L-102.23211259581149,257.8633337561041Z" fill="#e7fdc3" stroke="#e7fdc3"/><path d="M-118.9965854678303,96.69093805365264L-102.23211259581149,257.8633337561041L73.14381829462945,130.49104649573565Z" fill="#f7ffce" stroke="#f7ffce"/><path d="M73.14381829462945,130.49104649573565L-102.23211259581149,257.8633337561041L90.33701830543578,182.3219514079392Z" fill="#f4ffc6" stroke="#f4ffc6"/><path d="M73.14381829462945,130.49104649573565L90.33701830543578,182.3219514079392L212.03334351070225,31.538590528070927Z" fill="#f0fcc9" stroke="#f0fcc9"/><path d="M212.03334351070225,31.538590528070927L90.33701830543578,182.3219514079392L266.84397337026894,191.7504273634404Z" fill="#eafac2" stroke="#eafac2"/><path d="M212.03334351070225,31.538590528070927L266.84397337026894,191.7504273634404L368.5600966773927,91.33385798893869Z" fill="#e5f7c1" stroke="#e5f7c1"/><path d="M368.5600966773927,91.33385798893869L266.84397337026894,191.7504273634404L383.9159334730357,183.65940095856786Z" fill="#dff5b7" stroke="#dff5b7"/><path d="M368.5600966773927,91.33385798893869L383.9159334730357,183.65940095856786L552.9851133562624,128.07582498528063Z" fill="#d8f2b4" stroke="#d8f2b4"/><path d="M552.9851133562624,128.07582498528063L383.9159334730357,183.65940095856786L510.02238700166345,256.71007513068616Z" fill="#d1f0ab" stroke="#d1f0ab"/><path d="M552.9851133562624,128.07582498528063L510.02238700166345,256.71007513068616L734.6713045053184,167.97442861832678Z" fill="#c7eca7" stroke="#c7eca7"/><path d="M552.9851133562624,128.07582498528063L734.6713045053184,167.97442861832678L698.114567399025,57.746012192219496Z" fill="#c5eaae" stroke="#c5eaae"/><path d="M698.114567399025,57.746012192219496L734.6713045053184,167.97442861832678L805.3148927818984,130.69022216834128Z" fill="#bee6aa" stroke="#bee6aa"/><path d="M805.3148927818984,130.69022216834128L734.6713045053184,167.97442861832678L775.5607868358493,283.088846700266Z" fill="#b8e59f" stroke="#b8e59f"/><path d="M805.3148927818984,130.69022216834128L775.5607868358493,283.088846700266L1026.8904416263103,208.6241981294006Z" fill="#aee099" stroke="#aee099"/><path d="M805.3148927818984,130.69022216834128L1026.8904416263103,208.6241981294006L1004.0789072960615,73.9902130421251Z" fill="#aada9d" stroke="#aada9d"/><path d="M1004.0789072960615,73.9902130421251L1026.8904416263103,208.6241981294006L1160.5455890670419,34.88214796409011Z" fill="#a0d19a" stroke="#a0d19a"/><path d="M1160.5455890670419,34.88214796409011L1026.8904416263103,208.6241981294006L1180.1346796005964,283.50754701532423Z" fill="#96cd8d" stroke="#96cd8d"/><path d="M1160.5455890670419,34.88214796409011L1180.1346796005964,283.50754701532423L1297.9676034394652,115.0526925176382Z" fill="#8fc58b" stroke="#8fc58b"/><path d="M1297.9676034394652,115.0526925176382L1180.1346796005964,283.50754701532423L1304.6703433804214,231.98788278736174Z" fill="#86c280" stroke="#86c280"/><path d="M1297.9676034394652,115.0526925176382L1304.6703433804214,231.98788278736174L1449.0204741060734,197.03291974961758Z" fill="#7fbb7d" stroke="#7fbb7d"/><path d="M1297.9676034394652,115.0526925176382L1449.0204741060734,197.03291974961758L1447.2863353416324,50.710924342274666Z" fill="#7db782" stroke="#7db782"/><path d="M1447.2863353416324,50.710924342274666L1449.0204741060734,197.03291974961758L1612.6774670742452,94.50681030750275Z" fill="#7aaf7d" stroke="#7aaf7d"/><path d="M1612.6774670742452,94.50681030750275L1449.0204741060734,197.03291974961758L1627.764524007216,184.50748994015157Z" fill="#78aa73" stroke="#78aa73"/><path d="M1612.6774670742452,94.50681030750275L1627.764524007216,184.50748994015157L1669.493499090895,65.21704928018153Z" fill="#7aa474" stroke="#7aa474"/><path d="M1669.493499090895,65.21704928018153L1627.764524007216,184.50748994015157L1733.702230481431,226.95310682058334Z" fill="#78a16b" stroke="#78a16b"/><path d="M1669.493499090895,65.21704928018153L1733.702230481431,226.95310682058334L1905.5524098314345,110.11849315837026Z" fill="#799a69" stroke="#799a69"/><path d="M1905.5524098314345,110.11849315837026L1733.702230481431,226.95310682058334L1921.3023992534727,196.52429033070803Z" fill="#779362" stroke="#779362"/><path d="M-102.23211259581149,257.8633337561041L-124.07550643198192,541.4103671908379L-77.58578846231103,386.41833644360304Z" fill="#d4f9ba" stroke="#d4f9ba"/><path d="M-102.23211259581149,257.8633337561041L-77.58578846231103,386.41833644360304L27.015004763379693,378.5085710417479Z" fill="#dffbbb" stroke="#dffbbb"/><path d="M-102.23211259581149,257.8633337561041L27.015004763379693,378.5085710417479L90.33701830543578,182.3219514079392Z" fill="#ebfebd" stroke="#ebfebd"/><path d="M90.33701830543578,182.3219514079392L27.015004763379693,378.5085710417479L255.52919047884643,372.31850204989314Z" fill="#dbf9b3" stroke="#dbf9b3"/><path d="M90.33701830543578,182.3219514079392L255.52919047884643,372.31850204989314L266.84397337026894,191.7504273634404Z" fill="#e1f9b3" stroke="#e1f9b3"/><path d="M266.84397337026894,191.7504273634404L255.52919047884643,372.31850204989314L343.0092981643975,317.7408620528877Z" fill="#d3f4ab" stroke="#d3f4ab"/><path d="M266.84397337026894,191.7504273634404L343.0092981643975,317.7408620528877L383.9159334730357,183.65940095856786Z" fill="#dbf5ad" stroke="#dbf5ad"/><path d="M383.9159334730357,183.65940095856786L343.0092981643975,317.7408620528877L510.02238700166345,256.71007513068616Z" fill="#d1f2a7" stroke="#d1f2a7"/><path d="M510.02238700166345,256.71007513068616L343.0092981643975,317.7408620528877L487.26759566925466,408.9886098448187Z" fill="#c0ee9f" stroke="#c0ee9f"/><path d="M510.02238700166345,256.71007513068616L487.26759566925466,408.9886098448187L624.61042502895,373.31591363064945Z" fill="#b5ea9a" stroke="#b5ea9a"/><path d="M510.02238700166345,256.71007513068616L624.61042502895,373.31591363064945L734.6713045053184,167.97442861832678Z" fill="#bcea9d" stroke="#bcea9d"/><path d="M734.6713045053184,167.97442861832678L624.61042502895,373.31591363064945L775.5607868358493,283.088846700266Z" fill="#b3e699" stroke="#b3e699"/><path d="M775.5607868358493,283.088846700266L624.61042502895,373.31591363064945L765.5257639568299,333.9534666761756Z" fill="#a8e394" stroke="#a8e394"/><path d="M775.5607868358493,283.088846700266L765.5257639568299,333.9534666761756L927.8318856563419,406.5335654653609Z" fill="#9ddf8f" stroke="#9ddf8f"/><path d="M775.5607868358493,283.088846700266L927.8318856563419,406.5335654653609L1026.8904416263103,208.6241981294006Z" fill="#9cdb8e" stroke="#9cdb8e"/><path d="M1026.8904416263103,208.6241981294006L927.8318856563419,406.5335654653609L1083.6441142950207,338.65828363224864Z" fill="#8ed286" stroke="#8ed286"/><path d="M1026.8904416263103,208.6241981294006L1083.6441142950207,338.65828363224864L1180.1346796005964,283.50754701532423Z" fill="#8dcd84" stroke="#8dcd84"/><path d="M1180.1346796005964,283.50754701532423L1083.6441142950207,338.65828363224864L1268.6999611649662,329.6504263859242Z" fill="#7ec57b" stroke="#7ec57b"/><path d="M1180.1346796005964,283.50754701532423L1268.6999611649662,329.6504263859242L1304.6703433804214,231.98788278736174Z" fill="#7dc079" stroke="#7dc079"/><path d="M1304.6703433804214,231.98788278736174L1268.6999611649662,329.6504263859242L1449.0204741060734,197.03291974961758Z" fill="#79ba76" stroke="#79ba76"/><path d="M1449.0204741060734,197.03291974961758L1268.6999611649662,329.6504263859242L1484.3313066847622,433.14124904572964Z" fill="#67b36d" stroke="#67b36d"/><path d="M1449.0204741060734,197.03291974961758L1484.3313066847622,433.14124904572964L1634.067515200004,323.91979473643005Z" fill="#63aa65" stroke="#63aa65"/><path d="M1449.0204741060734,197.03291974961758L1634.067515200004,323.91979473643005L1627.764524007216,184.50748994015157Z" fill="#73a969" stroke="#73a969"/><path d="M1627.764524007216,184.50748994015157L1634.067515200004,323.91979473643005L1733.702230481431,226.95310682058334Z" fill="#71a162" stroke="#71a162"/><path d="M1733.702230481431,226.95310682058334L1634.067515200004,323.91979473643005L1716.3183997571468,355.56251174770296Z" fill="#679d5b" stroke="#679d5b"/><path d="M1733.702230481431,226.95310682058334L1716.3183997571468,355.56251174770296L1890.02632079646,389.7331589832902Z" fill="#629554" stroke="#629554"/><path d="M1733.702230481431,226.95310682058334L1890.02632079646,389.7331589832902L1921.3023992534727,196.52429033070803Z" fill="#6c9258" stroke="#6c9258"/><path d="M1921.3023992534727,196.52429033070803L1890.02632079646,389.7331589832902L1916.818438572809,667.8332890570164Z" fill="#51874c" stroke="#51874c"/><path d="M-77.58578846231103,386.41833644360304L-124.07550643198192,541.4103671908379L56.3694323413074,542.3812744952738Z" fill="#c2f1ae" stroke="#c2f1ae"/><path d="M-77.58578846231103,386.41833644360304L56.3694323413074,542.3812744952738L27.015004763379693,378.5085710417479Z" fill="#cdf7b1" stroke="#cdf7b1"/><path d="M27.015004763379693,378.5085710417479L56.3694323413074,542.3812744952738L255.52919047884643,372.31850204989314Z" fill="#c6f4aa" stroke="#c6f4aa"/><path d="M255.52919047884643,372.31850204989314L56.3694323413074,542.3812744952738L188.0562874674797,567.1106448490173Z" fill="#b5eca0" stroke="#b5eca0"/><path d="M255.52919047884643,372.31850204989314L188.0562874674797,567.1106448490173L428.34358708932996,517.0459866710007Z" fill="#aeea9a" stroke="#aeea9a"/><path d="M255.52919047884643,372.31850204989314L428.34358708932996,517.0459866710007L343.0092981643975,317.7408620528877Z" fill="#baee9e" stroke="#baee9e"/><path d="M343.0092981643975,317.7408620528877L428.34358708932996,517.0459866710007L487.26759566925466,408.9886098448187Z" fill="#b2eb99" stroke="#b2eb99"/><path d="M487.26759566925466,408.9886098448187L428.34358708932996,517.0459866710007L531.3058516010642,538.3740809094161Z" fill="#9ee38f" stroke="#9ee38f"/><path d="M487.26759566925466,408.9886098448187L531.3058516010642,538.3740809094161L624.61042502895,373.31591363064945Z" fill="#a2e592" stroke="#a2e592"/><path d="M624.61042502895,373.31591363064945L531.3058516010642,538.3740809094161L637.0181206427515,554.8191885463893Z" fill="#94de8a" stroke="#94de8a"/><path d="M624.61042502895,373.31591363064945L637.0181206427515,554.8191885463893L788.7115008383989,548.8530518207699Z" fill="#8cdb87" stroke="#8cdb87"/><path d="M624.61042502895,373.31591363064945L788.7115008383989,548.8530518207699L765.5257639568299,333.9534666761756Z" fill="#96e08d" stroke="#96e08d"/><path d="M765.5257639568299,333.9534666761756L788.7115008383989,548.8530518207699L927.8318856563419,406.5335654653609Z" fill="#8bdb88" stroke="#8bdb88"/><path d="M927.8318856563419,406.5335654653609L788.7115008383989,548.8530518207699L976.7522326949984,495.0517331343144Z" fill="#7ad27f" stroke="#7ad27f"/><path d="M927.8318856563419,406.5335654653609L976.7522326949984,495.0517331343144L1083.6441142950207,338.65828363224864Z" fill="#7dcf7f" stroke="#7dcf7f"/><path d="M1083.6441142950207,338.65828363224864L976.7522326949984,495.0517331343144L1089.066805606708,543.2068286743015Z" fill="#70c978" stroke="#70c978"/><path d="M1083.6441142950207,338.65828363224864L1089.066805606708,543.2068286743015L1268.6999611649662,329.6504263859242Z" fill="#70c476" stroke="#70c476"/><path d="M1268.6999611649662,329.6504263859242L1089.066805606708,543.2068286743015L1323.177946060896,562.9309199564159Z" fill="#5ab86a" stroke="#5ab86a"/><path d="M1268.6999611649662,329.6504263859242L1323.177946060896,562.9309199564159L1484.3313066847622,433.14124904572964Z" fill="#54b165" stroke="#54b165"/><path d="M1484.3313066847622,433.14124904572964L1323.177946060896,562.9309199564159L1435.4949232935905,545.0446893274784Z" fill="#3fa459" stroke="#3fa459"/><path d="M1484.3313066847622,433.14124904572964L1435.4949232935905,545.0446893274784L1628.8202247396111,483.6580053437501Z" fill="#43a056" stroke="#43a056"/><path d="M1484.3313066847622,433.14124904572964L1628.8202247396111,483.6580053437501L1634.067515200004,323.91979473643005Z" fill="#51a159" stroke="#51a159"/><path d="M1634.067515200004,323.91979473643005L1628.8202247396111,483.6580053437501L1716.3183997571468,355.56251174770296Z" fill="#569c57" stroke="#569c57"/><path d="M1716.3183997571468,355.56251174770296L1628.8202247396111,483.6580053437501L1689.0849728230387,514.6193792950362Z" fill="#4a9850" stroke="#4a9850"/><path d="M1716.3183997571468,355.56251174770296L1689.0849728230387,514.6193792950362L1890.02632079646,389.7331589832902Z" fill="#50934d" stroke="#50934d"/><path d="M1890.02632079646,389.7331589832902L1689.0849728230387,514.6193792950362L1889.9653764255345,518.1159124989063Z" fill="#468b47" stroke="#468b47"/><path d="M1890.02632079646,389.7331589832902L1889.9653764255345,518.1159124989063L1916.818438572809,667.8332890570164Z" fill="#3a7c40" stroke="#3a7c40"/><path d="M-124.07550643198192,541.4103671908379L-79.78778150863945,965.239346427843L-99.42008949816227,728.9631898049265Z" fill="#8ac68e" stroke="#8ac68e"/><path d="M-124.07550643198192,541.4103671908379L-99.42008949816227,728.9631898049265L56.3694323413074,542.3812744952738Z" fill="#a9de9e" stroke="#a9de9e"/><path d="M56.3694323413074,542.3812744952738L-99.42008949816227,728.9631898049265L111.04990591295063,644.8568055499345Z" fill="#9fd895" stroke="#9fd895"/><path d="M56.3694323413074,542.3812744952738L111.04990591295063,644.8568055499345L188.0562874674797,567.1106448490173Z" fill="#a4de97" stroke="#a4de97"/><path d="M188.0562874674797,567.1106448490173L111.04990591295063,644.8568055499345L218.5320302657783,673.1649499386549Z" fill="#97d58d" stroke="#97d58d"/><path d="M188.0562874674797,567.1106448490173L218.5320302657783,673.1649499386549L430.68739467300475,642.1364301536232Z" fill="#8fd287" stroke="#8fd287"/><path d="M188.0562874674797,567.1106448490173L430.68739467300475,642.1364301536232L428.34358708932996,517.0459866710007Z" fill="#95d88a" stroke="#95d88a"/><path d="M428.34358708932996,517.0459866710007L430.68739467300475,642.1364301536232L531.3058516010642,538.3740809094161Z" fill="#8ed785" stroke="#8ed785"/><path d="M531.3058516010642,538.3740809094161L430.68739467300475,642.1364301536232L517.5953193381429,734.9282293394208Z" fill="#7cc97a" stroke="#7cc97a"/><path d="M531.3058516010642,538.3740809094161L517.5953193381429,734.9282293394208L637.0181206427515,554.8191885463893Z" fill="#7ccb7b" stroke="#7ccb7b"/><path d="M637.0181206427515,554.8191885463893L517.5953193381429,734.9282293394208L562.5801891367882,769.109500637278Z" fill="#6bbe70" stroke="#6bbe70"/><path d="M637.0181206427515,554.8191885463893L562.5801891367882,769.109500637278L731.3088966440409,635.3721038717777Z" fill="#6cc172" stroke="#6cc172"/><path d="M637.0181206427515,554.8191885463893L731.3088966440409,635.3721038717777L788.7115008383989,548.8530518207699Z" fill="#75ca79" stroke="#75ca79"/><path d="M788.7115008383989,548.8530518207699L731.3088966440409,635.3721038717777L787.2737827710807,694.2826967407018Z" fill="#66c071" stroke="#66c071"/><path d="M788.7115008383989,548.8530518207699L787.2737827710807,694.2826967407018L983.0294607952237,654.2169264424592Z" fill="#5dbc6d" stroke="#5dbc6d"/><path d="M788.7115008383989,548.8530518207699L983.0294607952237,654.2169264424592L976.7522326949984,495.0517331343144Z" fill="#66c272" stroke="#66c272"/><path d="M976.7522326949984,495.0517331343144L983.0294607952237,654.2169264424592L1089.066805606708,543.2068286743015Z" fill="#5cba6c" stroke="#5cba6c"/><path d="M1089.066805606708,543.2068286743015L983.0294607952237,654.2169264424592L1152.4227090831846,645.8560556732118Z" fill="#4bad61" stroke="#4bad61"/><path d="M1089.066805606708,543.2068286743015L1152.4227090831846,645.8560556732118L1323.177946060896,562.9309199564159Z" fill="#47a95e" stroke="#47a95e"/><path d="M1323.177946060896,562.9309199564159L1152.4227090831846,645.8560556732118L1294.6637667529285,718.3263415284455Z" fill="#339a51" stroke="#339a51"/><path d="M1323.177946060896,562.9309199564159L1294.6637667529285,718.3263415284455L1477.351914010942,686.1418729182333Z" fill="#258f48" stroke="#258f48"/><path d="M1323.177946060896,562.9309199564159L1477.351914010942,686.1418729182333L1435.4949232935905,545.0446893274784Z" fill="#2c964d" stroke="#2c964d"/><path d="M1435.4949232935905,545.0446893274784L1477.351914010942,686.1418729182333L1628.8202247396111,483.6580053437501Z" fill="#30924a" stroke="#30924a"/><path d="M1628.8202247396111,483.6580053437501L1477.351914010942,686.1418729182333L1530.0456734653562,732.8502439521253Z" fill="#228540" stroke="#228540"/><path d="M1628.8202247396111,483.6580053437501L1530.0456734653562,732.8502439521253L1715.029992526397,684.3543784786016Z" fill="#237f3b" stroke="#237f3b"/><path d="M1628.8202247396111,483.6580053437501L1715.029992526397,684.3543784786016L1689.0849728230387,514.6193792950362Z" fill="#338741" stroke="#338741"/><path d="M1689.0849728230387,514.6193792950362L1715.029992526397,684.3543784786016L1889.9653764255345,518.1159124989063Z" fill="#307e3a" stroke="#307e3a"/><path d="M1889.9653764255345,518.1159124989063L1715.029992526397,684.3543784786016L1916.818438572809,667.8332890570164Z" fill="#257032" stroke="#257032"/><path d="M-99.42008949816227,728.9631898049265L-79.78778150863945,965.239346427843L-84.59769702516496,768.3752942830324Z" fill="#80b983" stroke="#80b983"/><path d="M-99.42008949816227,728.9631898049265L-84.59769702516496,768.3752942830324L111.04990591295063,644.8568055499345Z" fill="#90cb8d" stroke="#90cb8d"/><path d="M111.04990591295063,644.8568055499345L-84.59769702516496,768.3752942830324L166.78653216920793,768.1152619700879Z" fill="#89c786" stroke="#89c786"/><path d="M111.04990591295063,644.8568055499345L166.78653216920793,768.1152619700879L218.5320302657783,673.1649499386549Z" fill="#89c984" stroke="#89c984"/><path d="M218.5320302657783,673.1649499386549L166.78653216920793,768.1152619700879L349.0237997844815,864.9897241964936Z" fill="#72bb75" stroke="#72bb75"/><path d="M218.5320302657783,673.1649499386549L349.0237997844815,864.9897241964936L430.68739467300475,642.1364301536232Z" fill="#76bf76" stroke="#76bf76"/><path d="M430.68739467300475,642.1364301536232L349.0237997844815,864.9897241964936L517.5953193381429,734.9282293394208Z" fill="#6ab96d" stroke="#6ab96d"/><path d="M517.5953193381429,734.9282293394208L349.0237997844815,864.9897241964936L471.32588253356516,925.1324235275388Z" fill="#5fa860" stroke="#5fa860"/><path d="M517.5953193381429,734.9282293394208L471.32588253356516,925.1324235275388L562.5801891367882,769.109500637278Z" fill="#59ab62" stroke="#59ab62"/><path d="M731.3088966440409,635.3721038717777L562.5801891367882,769.109500637278L787.2737827710807,694.2826967407018Z" fill="#5db76a" stroke="#5db76a"/><path d="M787.2737827710807,694.2826967407018L562.5801891367882,769.109500637278L805.3814889583737,784.8390232399106Z" fill="#50ad62" stroke="#50ad62"/><path d="M787.2737827710807,694.2826967407018L805.3814889583737,784.8390232399106L983.0294607952237,654.2169264424592Z" fill="#4cae62" stroke="#4cae62"/><path d="M983.0294607952237,654.2169264424592L805.3814889583737,784.8390232399106L1019.5735119469464,879.6153593156487Z" fill="#379d54" stroke="#379d54"/><path d="M983.0294607952237,654.2169264424592L1019.5735119469464,879.6153593156487L1091.6425737272948,783.4056914504617Z" fill="#2d964e" stroke="#2d964e"/><path d="M983.0294607952237,654.2169264424592L1091.6425737272948,783.4056914504617L1152.4227090831846,645.8560556732118Z" fill="#39a056" stroke="#39a056"/><path d="M1152.4227090831846,645.8560556732118L1091.6425737272948,783.4056914504617L1277.4545421916991,785.0065565016121Z" fill="#26914a" stroke="#26914a"/><path d="M1152.4227090831846,645.8560556732118L1277.4545421916991,785.0065565016121L1294.6637667529285,718.3263415284455Z" fill="#248f48" stroke="#248f48"/><path d="M1294.6637667529285,718.3263415284455L1277.4545421916991,785.0065565016121L1433.9430078864098,803.6626900546253Z" fill="#0f7e3b" stroke="#0f7e3b"/><path d="M1294.6637667529285,718.3263415284455L1433.9430078864098,803.6626900546253L1477.351914010942,686.1418729182333Z" fill="#0f7f3b" stroke="#0f7f3b"/><path d="M1477.351914010942,686.1418729182333L1433.9430078864098,803.6626900546253L1530.0456734653562,732.8502439521253Z" fill="#0b7836" stroke="#0b7836"/><path d="M1530.0456734653562,732.8502439521253L1433.9430078864098,803.6626900546253L1544.6428813878447,847.8435658290982Z" fill="#006d2d" stroke="#006d2d"/><path d="M1530.0456734653562,732.8502439521253L1544.6428813878447,847.8435658290982L1715.029992526397,684.3543784786016Z" fill="#086c2c" stroke="#086c2c"/><path d="M1715.029992526397,684.3543784786016L1544.6428813878447,847.8435658290982L1772.5721440650523,829.34007788077Z" fill="#016022" stroke="#016022"/><path d="M1715.029992526397,684.3543784786016L1772.5721440650523,829.34007788077L1882.4976467806846,783.5222933907062Z" fill="#065c1f" stroke="#065c1f"/><path d="M1715.029992526397,684.3543784786016L1882.4976467806846,783.5222933907062L1916.818438572809,667.8332890570164Z" fill="#116126" stroke="#116126"/><path d="M1916.818438572809,667.8332890570164L1882.4976467806846,783.5222933907062L1824.8152716457844,1138.1751256249845Z" fill="#004411" stroke="#004411"/><path d="M-84.59769702516496,768.3752942830324L-79.78778150863945,965.239346427843L41.19923483580351,978.410133831203Z" fill="#80ab74" stroke="#80ab74"/><path d="M-84.59769702516496,768.3752942830324L41.19923483580351,978.410133831203L133.73764973133802,839.3247796688229Z" fill="#7eb175" stroke="#7eb175"/><path d="M-84.59769702516496,768.3752942830324L133.73764973133802,839.3247796688229L166.78653216920793,768.1152619700879Z" fill="#7bbc7d" stroke="#7bbc7d"/><path d="M133.73764973133802,839.3247796688229L41.19923483580351,978.410133831203L252.7059078309685,978.726168628782Z" fill="#75a265" stroke="#75a265"/><path d="M133.73764973133802,839.3247796688229L252.7059078309685,978.726168628782L349.0237997844815,864.9897241964936Z" fill="#6ea564" stroke="#6ea564"/><path d="M133.73764973133802,839.3247796688229L349.0237997844815,864.9897241964936L166.78653216920793,768.1152619700879Z" fill="#70b270" stroke="#70b270"/><path d="M349.0237997844815,864.9897241964936L252.7059078309685,978.726168628782L414.7807734645903,926.5504836291075Z" fill="#679e5b" stroke="#679e5b"/><path d="M349.0237997844815,864.9897241964936L414.7807734645903,926.5504836291075L471.32588253356516,925.1324235275388Z" fill="#629e58" stroke="#629e58"/><path d="M562.5801891367882,769.109500637278L471.32588253356516,925.1324235275388L704.6500526927412,943.7221356108785Z" fill="#539d56" stroke="#539d56"/><path d="M562.5801891367882,769.109500637278L704.6500526927412,943.7221356108785L723.8955046143383,878.1460294872522Z" fill="#4c9c54" stroke="#4c9c54"/><path d="M562.5801891367882,769.109500637278L723.8955046143383,878.1460294872522L805.3814889583737,784.8390232399106Z" fill="#49a45b" stroke="#49a45b"/><path d="M723.8955046143383,878.1460294872522L704.6500526927412,943.7221356108785L865.7105567771941,993.8940501306206Z" fill="#438c46" stroke="#438c46"/><path d="M723.8955046143383,878.1460294872522L865.7105567771941,993.8940501306206L805.3814889583737,784.8390232399106Z" fill="#40934c" stroke="#40934c"/><path d="M805.3814889583737,784.8390232399106L865.7105567771941,993.8940501306206L1019.5735119469464,879.6153593156487Z" fill="#368d47" stroke="#368d47"/><path d="M1019.5735119469464,879.6153593156487L865.7105567771941,993.8940501306206L991.6219836752862,983.0913805682212Z" fill="#307d3a" stroke="#307d3a"/><path d="M1019.5735119469464,879.6153593156487L991.6219836752862,983.0913805682212L1127.6166265737265,926.6994239855558Z" fill="#277a37" stroke="#277a37"/><path d="M1019.5735119469464,879.6153593156487L1127.6166265737265,926.6994239855558L1091.6425737272948,783.4056914504617Z" fill="#24823e" stroke="#24823e"/><path d="M1091.6425737272948,783.4056914504617L1127.6166265737265,926.6994239855558L1277.4545421916991,785.0065565016121Z" fill="#1b813d" stroke="#1b813d"/><path d="M1277.4545421916991,785.0065565016121L1127.6166265737265,926.6994239855558L1281.131692668423,918.5336574632674Z" fill="#157533" stroke="#157533"/><path d="M1277.4545421916991,785.0065565016121L1281.131692668423,918.5336574632674L1433.9430078864098,803.6626900546253Z" fill="#0b7432" stroke="#0b7432"/><path d="M1433.9430078864098,803.6626900546253L1281.131692668423,918.5336574632674L1365.5857511144131,1029.3628286663443Z" fill="#086325" stroke="#086325"/><path d="M1433.9430078864098,803.6626900546253L1365.5857511144131,1029.3628286663443L1544.6428813878447,847.8435658290982Z" fill="#006023" stroke="#006023"/><path d="M1544.6428813878447,847.8435658290982L1365.5857511144131,1029.3628286663443L1575.324538378045,929.1047795768827Z" fill="#00561a" stroke="#00561a"/><path d="M1544.6428813878447,847.8435658290982L1575.324538378045,929.1047795768827L1772.5721440650523,829.34007788077Z" fill="#00561a" stroke="#00561a"/><path d="M1772.5721440650523,829.34007788077L1575.324538378045,929.1047795768827L1775.4381017480046,1003.2948212698102Z" fill="#00480e" stroke="#00480e"/><path d="M1772.5721440650523,829.34007788077L1775.4381017480046,1003.2948212698102L1832.1322718448937,1020.7357030548155Z" fill="#003b05" stroke="#003b05"/><path d="M1772.5721440650523,829.34007788077L1832.1322718448937,1020.7357030548155L1882.4976467806846,783.5222933907062Z" fill="#00450f" stroke="#00450f"/><path d="M1882.4976467806846,783.5222933907062L1832.1322718448937,1020.7357030548155L1824.8152716457844,1138.1751256249845Z" fill="#003201" stroke="#003201"/><path d="M-79.78778150863945,965.239346427843L-48.22024715133011,1130.341473268345L18.69792239740491,1076.6622167173773Z" fill="#809168" stroke="#809168"/><path d="M-79.78778150863945,965.239346427843L18.69792239740491,1076.6622167173773L41.19923483580351,978.410133831203Z" fill="#809a67" stroke="#809a67"/><path d="M41.19923483580351,978.410133831203L18.69792239740491,1076.6622167173773L252.7059078309685,978.726168628782Z" fill="#789660" stroke="#789660"/><path d="M252.7059078309685,978.726168628782L18.69792239740491,1076.6622167173773L265.52519182674587,1119.7919921111315Z" fill="#738b5b" stroke="#738b5b"/><path d="M252.7059078309685,978.726168628782L265.52519182674587,1119.7919921111315L372.5649669673294,1159.9908909760416Z" fill="#6a8354" stroke="#6a8354"/><path d="M252.7059078309685,978.726168628782L372.5649669673294,1159.9908909760416L414.7807734645903,926.5504836291075Z" fill="#678c51" stroke="#678c51"/><path d="M414.7807734645903,926.5504836291075L372.5649669673294,1159.9908909760416L471.32588253356516,925.1324235275388Z" fill="#618e4d" stroke="#618e4d"/><path d="M471.32588253356516,925.1324235275388L372.5649669673294,1159.9908909760416L546.4505497086793,1168.5986028425395Z" fill="#5d7e4b" stroke="#5d7e4b"/><path d="M471.32588253356516,925.1324235275388L546.4505497086793,1168.5986028425395L704.6500526927412,943.7221356108785Z" fill="#548647" stroke="#548647"/><path d="M704.6500526927412,943.7221356108785L546.4505497086793,1168.5986028425395L673.2209319714457,1151.871052198112Z" fill="#4e7744" stroke="#4e7744"/><path d="M704.6500526927412,943.7221356108785L673.2209319714457,1151.871052198112L810.0367825571448,1083.3985226042569Z" fill="#467841" stroke="#467841"/><path d="M704.6500526927412,943.7221356108785L810.0367825571448,1083.3985226042569L865.7105567771941,993.8940501306206Z" fill="#407f3f" stroke="#407f3f"/><path d="M865.7105567771941,993.8940501306206L810.0367825571448,1083.3985226042569L1002.2063689492643,1101.9052226096392Z" fill="#377039" stroke="#377039"/><path d="M865.7105567771941,993.8940501306206L1002.2063689492643,1101.9052226096392L991.6219836752862,983.0913805682212Z" fill="#317135" stroke="#317135"/><path d="M991.6219836752862,983.0913805682212L1002.2063689492643,1101.9052226096392L1127.6166265737265,926.6994239855558Z" fill="#286e30" stroke="#286e30"/><path d="M1127.6166265737265,926.6994239855558L1002.2063689492643,1101.9052226096392L1172.685712929815,1150.9821979980916Z" fill="#225f2c" stroke="#225f2c"/><path d="M1127.6166265737265,926.6994239855558L1172.685712929815,1150.9821979980916L1281.131692668423,918.5336574632674Z" fill="#186226" stroke="#186226"/><path d="M1281.131692668423,918.5336574632674L1172.685712929815,1150.9821979980916L1332.8213227260858,1112.9265524167567Z" fill="#125322" stroke="#125322"/><path d="M1281.131692668423,918.5336574632674L1332.8213227260858,1112.9265524167567L1365.5857511144131,1029.3628286663443Z" fill="#0b551d" stroke="#0b551d"/><path d="M1365.5857511144131,1029.3628286663443L1332.8213227260858,1112.9265524167567L1390.1142789423466,1086.660230755806Z" fill="#07481b" stroke="#07481b"/><path d="M1365.5857511144131,1029.3628286663443L1390.1142789423466,1086.660230755806L1546.8854235392064,1090.2090470865369Z" fill="#004417" stroke="#004417"/><path d="M1365.5857511144131,1029.3628286663443L1546.8854235392064,1090.2090470865369L1575.324538378045,929.1047795768827Z" fill="#004813" stroke="#004813"/><path d="M1575.324538378045,929.1047795768827L1546.8854235392064,1090.2090470865369L1775.4381017480046,1003.2948212698102Z" fill="#003e0a" stroke="#003e0a"/><path d="M1775.4381017480046,1003.2948212698102L1546.8854235392064,1090.2090470865369L1742.0484683476388,1114.0370663255453Z" fill="#003006" stroke="#003006"/><path d="M1775.4381017480046,1003.2948212698102L1742.0484683476388,1114.0370663255453L1832.1322718448937,1020.7357030548155Z" fill="#002c00" stroke="#002c00"/><path d="M1832.1322718448937,1020.7357030548155L1742.0484683476388,1114.0370663255453L1824.8152716457844,1138.1751256249845Z" fill="#002300" stroke="#002300"/><path d="M-48.22024715133011,1130.341473268345L372.5649669673294,1159.9908909760416L265.52519182674587,1119.7919921111315Z" fill="#717d5a" stroke="#717d5a"/><path d="M-48.22024715133011,1130.341473268345L265.52519182674587,1119.7919921111315L18.69792239740491,1076.6622167173773Z" fill="#7a8661" stroke="#7a8661"/><path d="M546.4505497086793,1168.5986028425395L1824.8152716457844,1138.1751256249845L1172.685712929815,1150.9821979980916Z" fill="#1a4927" stroke="#1a4927"/><path d="M546.4505497086793,1168.5986028425395L1172.685712929815,1150.9821979980916L673.2209319714457,1151.871052198112Z" fill="#40653e" stroke="#40653e"/><path d="M673.2209319714457,1151.871052198112L1172.685712929815,1150.9821979980916L1002.2063689492643,1101.9052226096392Z" fill="#315f36" stroke="#315f36"/><path d="M673.2209319714457,1151.871052198112L1002.2063689492643,1101.9052226096392L810.0367825571448,1083.3985226042569Z" fill="#3d6c3d" stroke="#3d6c3d"/><path d="M1172.685712929815,1150.9821979980916L1824.8152716457844,1138.1751256249845L1332.8213227260858,1112.9265524167567Z" fill="#003816" stroke="#003816"/><path d="M1332.8213227260858,1112.9265524167567L1824.8152716457844,1138.1751256249845L1546.8854235392064,1090.2090470865369Z" fill="#00320e" stroke="#00320e"/><path d="M1332.8213227260858,1112.9265524167567L1546.8854235392064,1090.2090470865369L1390.1142789423466,1086.660230755806Z" fill="#014017" stroke="#014017"/><path d="M1546.8854235392064,1090.2090470865369L1824.8152716457844,1138.1751256249845L1742.0484683476388,1114.0370663255453Z" fill="#002705" stroke="#002705"/></g></svg>